HIERARCHY
ROOT Hips
{
	OFFSET 50.942501 -6.878034 84.127296
	CHANNELS 6 Xposition Yposition Zposition Xrotation Yrotation Zrotation
	JOINT spine
	{
		OFFSET 0.000000 -0.342408 5.954384
		CHANNELS 3 Xrotation Yrotation Zrotation
		JOINT spine1
		{
			OFFSET 0.000000 -0.000001 8.856018
			CHANNELS 3 Xrotation Yrotation Zrotation
			JOINT spine2
			{
				OFFSET 0.000000 -0.000001 8.485672
				CHANNELS 3 Xrotation Yrotation Zrotation
				JOINT Neck
				{
					OFFSET 0.000000 -1.038703 21.786301
					CHANNELS 3 Xrotation Yrotation Zrotation
					JOINT Head
					{
						OFFSET 0.000000 -0.000001 6.582199
						CHANNELS 3 Xrotation Yrotation Zrotation
						End Site
						{
							OFFSET 0.000000 5.254357 15.932602
						}
					}
				}
				JOINT RightShoulder
				{
					OFFSET -3.573071 0.497524 9.163864
					CHANNELS 3 Xrotation Yrotation Zrotation
					JOINT RightArm
					{
						OFFSET 0.000000 -0.000002 12.019196
						CHANNELS 3 Xrotation Yrotation Zrotation
						JOINT RightArmRoll
						{
							OFFSET 0.000000 -0.000001 6.067551
							CHANNELS 3 Xrotation Yrotation Zrotation
							JOINT RightForeArm
							{
								OFFSET 0.000000 -0.000003 17.672607
								CHANNELS 3 Xrotation Yrotation Zrotation
								JOINT RightForeArmRoll
								{
									OFFSET 0.000000 -0.000001 6.808716
									CHANNELS 3 Xrotation Yrotation Zrotation
									JOINT RightHand
									{
										OFFSET 0.000000 -0.000002 13.663605
										CHANNELS 3 Xrotation Yrotation Zrotation
										End Site
										{
											OFFSET 0.000000 0.000000 0.100006
										}
									}
								}
							}
						}
					}
				}
				JOINT LeftShoulder
				{
					OFFSET 3.573071 0.497524 9.163864
					CHANNELS 3 Xrotation Yrotation Zrotation
					JOINT LeftArm
					{
						OFFSET 0.000000 -0.000002 12.019196
						CHANNELS 3 Xrotation Yrotation Zrotation
						JOINT LeftArmRoll
						{
							OFFSET 0.000000 -0.000001 6.067551
							CHANNELS 3 Xrotation Yrotation Zrotation
							JOINT LeftForeArm
							{
								OFFSET 0.000000 -0.000003 17.672607
								CHANNELS 3 Xrotation Yrotation Zrotation
								JOINT LeftForeArmRoll
								{
									OFFSET 0.000000 -0.000001 6.808716
									CHANNELS 3 Xrotation Yrotation Zrotation
									JOINT LeftHand
									{
										OFFSET 0.000000 -0.000002 13.663605
										CHANNELS 3 Xrotation Yrotation Zrotation
										End Site
										{
											OFFSET 0.000000 0.000000 0.100006
										}
									}
								}
							}
						}
					}
				}
			}
		}
	}
	JOINT RightUpLeg
	{
		OFFSET -5.277740 0.811859 -0.967796
		CHANNELS 3 Xrotation Yrotation Zrotation
		JOINT RightUpLegRoll
		{
			OFFSET 0.000000 -0.000003 16.021400
			CHANNELS 3 Xrotation Yrotation Zrotation
			JOINT RightLeg
			{
				OFFSET 0.000000 0.000003 -19.840096
				CHANNELS 3 Xrotation Yrotation Zrotation
				JOINT RightLegRoll
				{
					OFFSET 0.000000 -0.000003 19.904999
					CHANNELS 3 Xrotation Yrotation Zrotation
					JOINT RightFoot
					{
						OFFSET 0.000000 -0.000003 16.567497
						CHANNELS 3 Xrotation Yrotation Zrotation
						JOINT RightToeBase
						{
							OFFSET 0.000000 -0.000002 13.849602
							CHANNELS 3 Xrotation Yrotation Zrotation
							End Site
							{
								OFFSET 0.005871 0.773116 6.707275
							}
						}
					}
				}
			}
		}
	}
	JOINT LeftUpLeg
	{
		OFFSET 5.277740 0.811859 -0.967796
		CHANNELS 3 Xrotation Yrotation Zrotation
		JOINT LeftUpLegRoll
		{
			OFFSET 0.000000 -0.000003 16.021500
			CHANNELS 3 Xrotation Yrotation Zrotation
			JOINT LeftLeg
			{
				OFFSET 0.000000 -0.000003 19.839996
				CHANNELS 3 Xrotation Yrotation Zrotation
				JOINT LeftLegRoll
				{
					OFFSET 0.000000 -0.000003 20.089005
					CHANNELS 3 Xrotation Yrotation Zrotation
					JOINT LeftFoot
					{
						OFFSET 0.000000 -0.000002 16.383499
						CHANNELS 3 Xrotation Yrotation Zrotation
						JOINT LeftToeBase
						{
							OFFSET 0.000000 -0.000002 13.849594
							CHANNELS 3 Xrotation Yrotation Zrotation
							End Site
							{
								OFFSET -0.026310 0.773115 6.707275
							}
						}
					}
				}
			}
		}
	}
}
MOTION
Frames: 10
Frame Time: 0.041667
51.796799 -4.145484 84.388100 -7.481429 1.722827 -1.202619 -0.889222 -0.047697 0.043344 2.224402 -0.095390 0.081478 3.869475 -0.094426 0.082833 19.511818 2.589147 -0.420970 0.741572 -7.358280 0.089255 -12.222904 -11.131577 -11.361526 -164.877092 -137.218541 -108.629890 -0.000002 -0.000001 -0.000003 86.799144 1.936039 -4.646199 0.000001 0.000012 -2.999998 -5.000165 -7.999949 0.000018 -14.685866 12.383123 15.583698 199.856512 164.314571 -262.389121 -0.000002 0.000002 -0.000002 77.251980 -2.299648 4.528497 0.000000 -0.000004 3.000001 -5.000149 7.999911 -0.000011 1.732632 -181.385400 2.372618 179.999991 -0.000005 -1.147002 170.510646 -2.657189 -0.552990 0.000000 -0.000001 0.129160 69.336713 6.873255 2.149258 25.456957 -7.355618 0.000001 0.874936 177.271331 -1.349625 -0.000005 -0.000004 -1.137730 -12.681219 2.224898 0.614306 0.000001 -0.000001 -0.221977 71.050674 -6.833615 -2.170867 25.456950 7.355614 -0.000001 
51.740505 -4.128328 84.389008 -7.456888 1.735308 -1.198526 -0.897539 -0.049787 0.043277 2.207772 -0.099577 0.081393 3.852855 -0.098612 0.082777 19.616940 2.650496 -0.432552 0.650598 -7.427365 0.076634 -12.166157 -11.283725 -11.282299 -165.083814 -136.921988 -108.917263 -0.000006 -0.000001 -0.000000 86.631107 1.942633 -4.644664 -0.000001 0.000010 -2.999998 -5.000167 -7.999950 0.000019 -14.655889 12.635366 15.550246 199.812990 164.185207 -262.325382 -0.000003 0.000002 -0.000002 77.224359 -2.300936 4.528480 0.000000 -0.000004 2.999999 -5.000154 7.999909 -0.000010 1.713065 -181.411395 2.351784 179.999991 -0.000005 -1.146005 170.529265 -2.649436 -0.551808 0.000000 -0.000001 0.129073 69.328353 6.873210 2.149271 25.456957 -7.355619 0.000001 0.832243 177.251291 -1.358213 -0.000004 -0.000004 -1.137200 -12.702455 2.227376 0.615175 0.000001 -0.000001 -0.222113 71.055687 -6.833598 -2.170855 25.456950 7.355615 -0.000001 
51.745201 -4.116712 84.389397 -7.432261 1.748217 -1.194242 -0.906001 -0.051956 0.043211 2.190843 -0.103935 0.081318 3.835926 -0.102967 0.082731 19.723925 2.713473 -0.445209 0.558593 -7.499978 0.063110 -12.108800 -11.437621 -11.202269 -165.293037 -136.621801 -109.211310 -0.000001 0.000000 -0.000001 86.460250 1.949324 -4.643059 -0.000001 0.000009 -3.000001 -5.000167 -7.999952 0.000019 -14.625315 12.897929 15.515924 199.769851 164.058562 -262.263200 -0.000000 0.000002 -0.000003 77.199067 -2.302175 4.528505 0.000002 -0.000006 2.999999 -5.000154 7.999911 -0.000009 1.693867 -181.437391 2.330448 179.999991 -0.000005 -1.146005 170.548676 -2.641702 -0.550598 0.000001 -0.000001 0.128986 69.319692 6.873216 2.149307 25.456955 -7.355616 0.000000 0.789032 177.229257 -1.367353 -0.000004 -0.000004 -1.136670 -12.724397 2.230013 0.616067 0.000001 -0.000001 -0.222243 71.060790 -6.833587 -2.170841 25.456947 7.355611 -0.000000 
51.729599 -4.107555 84.387604 -7.407659 1.761217 -1.189826 -0.914543 -0.054170 0.043146 2.173764 -0.108390 0.081255 3.818846 -0.107419 0.082695 19.832076 2.777984 -0.458741 0.465908 -7.575411 0.048823 -12.051393 -11.592262 -11.122357 -165.503297 -136.317462 -109.511742 -0.000002 0.000000 -0.000000 86.285568 1.956157 -4.641366 -0.000001 0.000012 -2.999998 -5.000167 -7.999946 0.000020 -14.595044 13.169897 15.482389 199.728269 163.934471 -262.202684 0.000000 0.000002 -0.000002 77.176097 -2.303293 4.528594 0.000001 -0.000004 2.999998 -5.000148 7.999910 -0.000011 1.674880 -181.464398 2.308916 179.999991 -0.000005 -1.144995 170.568333 -2.633955 -0.550375 0.000000 -0.000001 0.128899 69.311209 6.873162 2.149324 25.456955 -7.355617 -0.000000 0.745675 177.208233 -1.376711 -0.000004 -0.000004 -1.136150 -12.746539 2.232774 0.616971 0.000001 -0.000001 -0.222367 71.065912 -6.833571 -2.170924 25.456950 7.355612 -0.000000 
51.723000 -4.109003 84.389694 -7.383218 1.773978 -1.185347 -0.923095 -0.056395 0.043082 2.156654 -0.112872 0.081203 3.801736 -0.111897 0.082669 19.940691 2.843956 -0.472957 0.372859 -7.653002 0.033914 -11.994808 -11.746430 -11.043551 -165.713339 -136.008655 -109.818937 -0.000001 0.000001 -0.000000 86.106098 1.963164 -4.639758 0.000003 0.000009 -2.999999 -5.000168 -7.999949 0.000020 -14.566271 13.450129 15.451122 199.689186 163.812948 -262.143562 -0.000000 0.000002 -0.000003 77.154937 -2.304346 4.528675 -0.000004 -0.000004 3.000000 -5.000155 7.999910 -0.000011 1.655946 -181.491390 2.287540 179.999991 -0.000005 -1.143997 170.587717 -2.626219 -0.549191 0.000001 -0.000002 0.128813 69.302870 6.873143 2.149338 25.456960 -7.355617 0.000001 0.702545 177.186199 -1.386009 -0.000004 -0.000004 -1.135640 -12.768481 2.235585 0.617871 0.000001 -0.000001 -0.222484 71.070809 -6.833555 -2.171019 25.456953 7.355613 -0.000000 
51.725201 -4.100663 84.390297 -7.359054 1.786155 -1.180865 -0.931592 -0.058595 0.043020 2.139664 -0.117308 0.081162 3.784747 -0.116331 0.082654 20.049383 2.911319 -0.487674 0.279798 -7.732058 0.018535 -11.939522 -11.899427 -10.966846 -165.921920 -135.694835 -110.133064 -0.000002 0.000000 -0.000002 85.920925 1.970344 -4.637825 0.000000 0.000007 -3.000002 -5.000164 -7.999950 0.000018 -14.539897 13.737612 15.423906 199.653519 163.694062 -262.085724 -0.000001 0.000002 -0.000001 77.135389 -2.305309 4.528729 -0.000003 -0.000002 3.000000 -5.000152 7.999909 -0.000011 1.636898 -181.517413 2.266653 179.999991 -0.000005 -1.143997 170.606255 -2.618461 -0.548033 0.000001 -0.000001 0.128728 69.295035 6.873116 2.149419 25.456955 -7.355616 0.000001 0.660009 177.165176 -1.394923 -0.000005 -0.000004 -1.135150 -12.789923 2.238389 0.618761 0.000001 -0.000001 -0.222591 71.075495 -6.833541 -2.171030 25.456953 7.355613 -0.000001 
51.710499 -4.096144 84.391701 -7.335299 1.797428 -1.176428 -0.939962 -0.060736 0.042959 2.122923 -0.121627 0.081133 3.768008 -0.120648 0.082649 20.157333 2.979983 -0.502680 0.187060 -7.811908 0.002838 -11.886303 -12.050031 -10.893218 -166.127563 -135.375688 -110.454001 -0.000002 0.000000 -0.000000 85.728935 1.977791 -4.635942 -0.000001 0.000007 -3.000001 -5.000165 -7.999947 0.000016 -14.517116 14.031293 15.402193 199.622141 163.577635 -262.029115 0.000004 0.000003 -0.000003 77.117255 -2.306183 4.528778 -0.000004 -0.000003 3.000000 -5.000153 7.999909 -0.000011 1.617600 -181.541415 2.246606 179.999991 -0.000005 -1.143000 170.623453 -2.610693 -0.546942 0.000001 -0.000001 0.128643 69.287857 6.873115 2.149365 25.456957 -7.355617 -0.000000 0.618440 177.146161 -1.403152 -0.000005 -0.000004 -1.134680 -12.810365 2.241114 0.619622 0.000002 -0.000001 -0.222690 71.079853 -6.833527 -2.171059 25.456943 7.355612 -0.000001 
51.719799 -4.093916 84.390900 -7.312056 1.807451 -1.172123 -0.948137 -0.062783 0.042899 2.106573 -0.125759 0.081115 3.751659 -0.124776 0.082656 20.263853 3.049899 -0.517776 0.094977 -7.891888 -0.013010 -11.835713 -12.197334 -10.823654 -166.328972 -135.050653 -110.781960 -0.000001 -0.000001 0.000001 85.529145 1.985540 -4.633686 -0.000000 0.000009 -3.000000 -5.000167 -7.999947 0.000020 -14.498938 14.330234 15.387959 199.595995 163.463666 -261.973681 -0.000001 0.000002 -0.000004 77.100118 -2.306980 4.528830 -0.000000 -0.000004 2.999999 -5.000151 7.999912 -0.000012 1.597891 -181.564419 2.227705 179.999991 -0.000005 -1.143000 170.638780 -2.603906 -0.546105 0.000001 -0.000001 0.128560 69.281498 6.873089 2.149355 25.456960 -7.355617 -0.000000 0.578209 177.128156 -1.410410 -0.000005 -0.000004 -1.134230 -12.829404 2.243714 0.620445 0.000002 -0.000001 -0.222778 71.083691 -6.833512 -2.171023 25.456948 7.355612 -0.000000 
51.718803 -4.082003 84.384796 -7.289469 1.815894 -1.167988 -0.956052 -0.064702 0.042841 2.090744 -0.129631 0.081110 3.735830 -0.128645 0.082675 20.368544 3.120973 -0.532761 0.003895 -7.971310 -0.028843 -11.788535 -12.340219 -10.759184 -166.524848 -134.719348 -111.117103 -0.000003 0.000000 -0.000000 85.320708 1.993579 -4.631438 -0.000004 0.000010 -2.999999 -5.000164 -7.999950 0.000019 -14.486464 14.633276 15.382670 199.576133 163.352266 -261.919177 0.000002 0.000002 -0.000001 77.083889 -2.307691 4.528889 -0.000002 -0.000004 2.999998 -5.000148 7.999913 -0.000012 1.577598 -181.584418 2.210319 179.999991 -0.000005 -1.142003 170.651662 -2.596103 -0.544220 0.000001 -0.000001 0.128478 69.276205 6.873039 2.149475 25.456955 -7.355618 0.000001 0.539683 177.112133 -1.416410 -0.000005 -0.000004 -1.133800 -12.846637 2.246115 0.621213 0.000001 -0.000001 -0.222855 71.086785 -6.833501 -2.171132 25.456948 7.355613 -0.000001 
51.722198 -4.076885 84.388397 -7.267647 1.822410 -1.164090 -0.963632 -0.066459 0.042785 2.075584 -0.133172 0.081118 3.720670 -0.132183 0.082706 20.470594 3.193158 -0.547422 -0.085854 -8.049501 -0.044489 -11.745243 -12.477973 -10.700815 -166.713757 -134.381117 -111.459507 -0.000002 -0.000001 -0.000001 85.102559 2.001954 -4.628978 -0.000001 0.000009 -2.999998 -5.000161 -7.999952 0.000017 -14.480708 14.939572 15.388181 199.563415 163.243242 -261.865409 0.000004 0.000003 -0.000002 77.068146 -2.308328 4.528946 -0.000001 -0.000004 3.000000 -5.000157 7.999909 -0.000011 1.556584 -181.602436 2.194732 179.999991 -0.000005 -1.141005 170.661593 -2.590259 -0.543796 0.000001 -0.000001 0.128397 69.272188 6.873016 2.149520 25.456957 -7.355618 0.000000 0.503241 177.099114 -1.420848 -0.000005 -0.000004 -1.133390 -12.861670 2.248262 0.621915 0.000002 -0.000001 -0.222920 71.089224 -6.833493 -2.171080 25.456948 7.355613 0.000000 
